<?xml version="1.0" standalone="no"?>
<!DOCTYPE svg PUBLIC "-//W3C//DTD SVG 20010904//EN"
 "http://www.w3.org/TR/2001/REC-SVG-20010904/DTD/svg10.dtd">
<svg version="1.0" xmlns="http://www.w3.org/2000/svg"
 width="2400.000000pt" height="2400.000000pt" viewBox="0 0 2400.000000 2400.000000"
 preserveAspectRatio="xMidYMid meet">

<g transform="translate(0.000000,2400.000000) scale(0.100000,-0.100000)"
fill="#000000" stroke="none">
<path d="M11369 19626 c-2 -2 -89 -7 -192 -10 -104 -3 -192 -8 -197 -11 -8 -5
-54 -11 -220 -30 -74 -8 -201 -36 -263 -57 -32 -11 -80 -20 -105 -20 -26 -1
-63 -9 -82 -19 -19 -11 -42 -19 -52 -19 -9 0 -19 -4 -22 -9 -3 -4 -24 -11 -47
-15 -23 -4 -60 -15 -83 -25 -22 -10 -78 -31 -123 -45 -45 -15 -93 -36 -107
-47 -13 -10 -30 -19 -38 -19 -8 0 -31 -9 -53 -20 -22 -11 -44 -20 -51 -20 -6
0 -19 -9 -29 -20 -10 -11 -23 -20 -29 -20 -10 0 -81 -32 -116 -52 -8 -5 -35
-18 -60 -30 -55 -26 -138 -78 -167 -106 -12 -12 -33 -24 -47 -28 -14 -3 -36
-18 -49 -33 -28 -34 -81 -71 -100 -71 -8 0 -35 -16 -59 -35 -111 -90 -178
-151 -178 -162 0 -7 -10 -18 -22 -24 -31 -16 -42 -26 -118 -101 -101 -100
-182 -189 -220 -241 -19 -26 -48 -64 -63 -84 -15 -20 -35 -52 -44 -70 -8 -19
-24 -38 -34 -44 -11 -5 -19 -18 -19 -29 0 -11 -9 -24 -20 -30 -11 -6 -20 -18
-20 -28 0 -9 -11 -30 -25 -46 -14 -17 -28 -41 -32 -55 -3 -14 -14 -36 -24 -49
-9 -12 -32 -57 -49 -100 -18 -42 -43 -98 -56 -124 -13 -26 -24 -62 -24 -79 0
-18 -6 -40 -14 -48 -17 -20 -79 -216 -78 -250 0 -15 -9 -43 -19 -63 -11 -21
-19 -58 -19 -82 0 -25 -4 -65 -10 -88 -23 -104 -27 -137 -17 -147 7 -7 7 -15
-1 -23 -13 -17 -16 -329 -2 -373 5 -16 14 -66 20 -110 14 -96 43 -205 71 -261
11 -22 24 -56 29 -75 5 -19 14 -52 20 -74 23 -80 23 -85 8 -85 -9 0 -26 8 -39
19 -13 10 -34 21 -46 25 -12 4 -39 21 -60 37 -74 59 -153 87 -283 100 -47 4
-104 11 -127 14 -23 4 -49 3 -58 -3 -11 -6 -33 -6 -58 0 -33 7 -47 5 -81 -13
-30 -16 -51 -20 -82 -15 -28 3 -47 1 -60 -9 -10 -8 -34 -15 -51 -15 -18 0 -33
-4 -33 -10 0 -5 -15 -10 -33 -10 -19 0 -42 -8 -55 -20 -12 -11 -29 -20 -40
-20 -10 0 -22 -4 -28 -9 -5 -5 -36 -19 -68 -30 -61 -21 -106 -54 -106 -77 0
-18 -33 -34 -56 -28 -13 3 -28 -4 -43 -20 -14 -14 -31 -26 -38 -26 -16 0 -193
-173 -193 -189 0 -35 -17 -61 -39 -61 -11 0 -21 -9 -24 -22 -4 -13 -16 -27
-29 -33 -13 -5 -31 -25 -40 -44 -9 -19 -21 -37 -25 -40 -20 -15 -50 -69 -56
-100 -4 -19 -16 -41 -27 -48 -22 -16 -53 -80 -45 -94 3 -4 -3 -12 -13 -18 -12
-6 -26 -39 -41 -92 -12 -45 -32 -95 -44 -111 -16 -22 -22 -45 -23 -85 0 -36
-6 -60 -15 -67 -16 -12 -34 -66 -44 -131 -4 -22 -11 -60 -16 -85 -5 -25 -12
-90 -14 -145 -2 -55 -10 -117 -16 -137 -10 -32 -10 -41 4 -56 17 -18 14 -54
-6 -79 -5 -8 -6 -28 -1 -50 4 -21 6 -42 4 -48 -8 -26 -9 -139 -1 -149 5 -6 9
-42 9 -81 0 -38 1 -74 2 -80 1 -5 3 -46 5 -90 3 -99 20 -236 41 -335 9 -41 16
-91 15 -112 0 -20 6 -41 14 -48 7 -6 11 -18 8 -26 -3 -8 0 -21 7 -29 6 -8 9
-19 5 -24 -9 -16 15 -131 36 -172 11 -20 19 -48 19 -63 0 -29 18 -110 31 -141
5 -11 9 -29 8 -40 -1 -29 18 -96 30 -108 6 -6 11 -26 11 -43 0 -18 7 -39 15
-48 8 -8 15 -28 15 -45 0 -16 4 -33 10 -36 6 -3 10 -17 10 -31 0 -25 2 -32 38
-101 12 -23 22 -55 22 -70 0 -16 6 -35 12 -41 10 -10 10 -15 -2 -22 -9 -6 -19
-5 -24 0 -18 18 -44 10 -65 -17 -17 -24 -22 -26 -40 -16 -11 7 -23 9 -26 4 -6
-11 -87 -51 -102 -51 -5 0 -18 -9 -27 -19 -10 -11 -27 -21 -39 -23 -11 -2 -28
-19 -40 -40 -13 -27 -26 -38 -41 -38 -12 0 -32 -11 -44 -25 -12 -14 -26 -25
-32 -25 -5 0 -10 -9 -10 -20 0 -12 -9 -24 -23 -29 -31 -12 -48 -35 -56 -74 -5
-21 -16 -36 -33 -45 -14 -7 -31 -25 -36 -41 -6 -16 -20 -39 -32 -51 -15 -15
-20 -29 -16 -44 4 -16 -2 -30 -19 -46 -14 -13 -23 -30 -20 -37 2 -8 -2 -16
-10 -19 -8 -4 -15 -18 -15 -31 0 -14 -9 -40 -20 -58 -11 -18 -21 -45 -23 -61
-2 -16 -11 -46 -20 -68 -9 -21 -17 -58 -17 -82 0 -23 -4 -46 -10 -49 -5 -3
-10 -19 -10 -35 0 -16 -5 -41 -11 -56 -7 -21 -7 -34 2 -51 10 -18 10 -26 1
-35 -15 -15 -17 -198 -2 -198 6 0 10 -9 10 -19 0 -11 5 -23 10 -26 15 -9 12
-62 -4 -68 -12 -5 -14 -22 -10 -88 3 -46 9 -90 13 -98 7 -15 28 -104 34 -146
1 -11 15 -26 30 -33 26 -13 27 -15 14 -35 -12 -18 -12 -27 -2 -52 7 -16 21
-50 31 -75 10 -25 24 -52 31 -61 7 -8 13 -23 13 -33 0 -25 37 -95 165 -311 27
-44 72 -95 85 -95 6 0 10 -7 10 -15 0 -8 17 -31 38 -53 20 -21 49 -54 63 -73
15 -18 55 -61 89 -94 35 -33 81 -79 103 -103 22 -23 48 -42 58 -42 9 0 40 -22
69 -50 29 -27 58 -50 66 -50 8 0 14 -4 14 -8 0 -5 12 -15 28 -23 15 -7 52 -30
82 -50 96 -63 137 -77 231 -75 95 2 111 8 107 39 -1 12 2 48 6 80 6 43 5 61
-5 73 -7 9 -18 26 -24 37 -6 12 -24 24 -42 28 -18 3 -44 14 -57 23 -14 9 -30
16 -36 16 -6 0 -30 18 -53 41 -23 22 -55 48 -72 56 -16 9 -51 37 -77 63 -26
27 -56 51 -67 55 -12 3 -21 11 -21 17 0 20 -71 98 -90 98 -30 0 -50 11 -50 29
0 9 -9 30 -20 46 -11 17 -30 45 -41 63 -12 17 -27 32 -35 32 -7 0 -20 16 -28
35 -8 19 -26 47 -41 62 -14 16 -23 33 -21 40 3 6 -4 19 -15 29 -10 9 -19 21
-19 26 0 6 -9 21 -20 35 -11 14 -20 34 -20 45 0 11 -13 39 -30 63 -16 24 -30
56 -30 71 0 39 -30 114 -45 114 -9 0 -13 19 -14 64 0 44 -6 74 -20 97 -14 25
-20 53 -20 109 0 41 -5 107 -10 145 -13 86 -14 199 -2 223 16 33 31 89 31 120
0 17 5 34 10 37 8 5 8 11 1 19 -13 15 -3 54 20 85 10 12 22 39 25 60 4 20 27
76 51 125 23 49 43 95 43 102 0 7 14 22 30 34 17 12 30 30 30 39 0 24 58 81
82 81 10 0 23 9 30 20 7 11 21 20 32 20 10 0 32 14 48 30 15 17 35 30 43 30 9
0 26 7 39 15 13 9 28 15 32 14 5 -1 16 0 24 3 120 41 346 67 365 42 8 -10 20
-11 53 -4 34 8 49 7 75 -7 18 -9 48 -17 67 -18 l35 0 0 -70 c0 -43 6 -78 14
-91 9 -13 11 -29 6 -40 -9 -24 -18 -513 -9 -534 8 -18 12 -55 18 -180 2 -52 7
-103 11 -112 3 -9 2 -25 -3 -35 -7 -11 -7 -25 -1 -35 15 -27 20 -140 8 -171
-9 -20 -9 -31 0 -41 7 -8 14 -55 16 -105 2 -50 7 -95 10 -101 9 -15 15 -93 15
-180 -1 -48 5 -89 15 -113 9 -21 18 -72 20 -113 3 -42 11 -84 19 -96 11 -15
12 -26 4 -44 -8 -17 -7 -32 3 -56 8 -18 12 -39 11 -46 -2 -8 4 -25 13 -39 9
-13 14 -32 10 -41 -8 -20 14 -159 30 -192 7 -14 10 -31 8 -38 -3 -7 2 -24 11
-37 9 -13 16 -44 16 -68 0 -27 6 -49 15 -57 9 -7 12 -22 9 -38 -3 -16 7 -64
25 -118 17 -51 31 -109 31 -130 0 -22 7 -52 15 -68 8 -16 24 -62 34 -103 11
-41 27 -83 37 -94 12 -13 17 -33 16 -58 -2 -24 3 -45 13 -54 8 -9 15 -29 15
-46 0 -16 5 -33 10 -36 6 -3 10 -16 10 -28 0 -13 7 -32 15 -44 8 -11 29 -65
46 -119 17 -55 44 -125 60 -157 16 -32 29 -69 29 -82 0 -29 10 -52 55 -130 19
-33 34 -70 35 -82 0 -12 4 -24 9 -28 5 -3 17 -29 26 -58 10 -28 30 -69 46 -89
16 -20 34 -58 41 -85 7 -26 20 -60 30 -74 10 -15 22 -37 28 -50 16 -35 51 -98
84 -148 16 -25 38 -68 49 -95 11 -28 30 -60 42 -71 13 -11 39 -54 59 -95 20
-41 54 -100 74 -131 20 -31 52 -79 71 -108 19 -28 38 -51 42 -51 5 0 9 -10 9
-23 0 -13 14 -36 30 -52 17 -16 30 -34 30 -41 0 -7 8 -19 19 -26 10 -7 39 -46
64 -86 26 -39 51 -72 56 -72 6 0 18 -16 27 -36 10 -20 41 -60 71 -89 29 -28
53 -55 53 -59 0 -4 6 -13 13 -21 6 -7 28 -36 47 -64 19 -27 43 -50 52 -51 9 0
20 -9 23 -21 7 -20 42 -64 78 -98 10 -9 32 -32 50 -51 97 -104 266 -264 289
-272 18 -6 31 -21 38 -43 11 -33 75 -82 125 -95 11 -3 23 -19 29 -38 5 -20 15
-32 26 -32 9 0 26 -13 38 -30 13 -16 29 -30 36 -30 7 0 19 -7 26 -15 7 -8 21
-15 31 -15 10 0 25 -13 34 -30 9 -16 24 -30 33 -30 10 0 31 -14 47 -30 16 -17
34 -30 40 -30 6 0 22 -12 36 -26 13 -14 40 -33 59 -42 19 -9 58 -33 85 -54 28
-21 55 -38 60 -38 6 0 16 -9 23 -20 7 -11 23 -20 36 -20 12 0 31 -9 41 -20 10
-11 25 -20 33 -20 8 0 30 -14 49 -30 18 -17 39 -30 45 -30 6 0 26 -11 44 -25
17 -13 51 -28 75 -31 25 -4 52 -17 65 -31 12 -12 28 -23 37 -23 9 0 28 -11 43
-25 15 -14 31 -25 36 -25 4 0 27 -8 51 -19 72 -32 112 -46 123 -43 6 1 17 -5
24 -13 7 -8 21 -15 31 -15 10 0 21 -5 25 -11 3 -6 15 -8 26 -5 12 2 27 -1 34
-9 7 -7 45 -22 83 -34 38 -12 71 -26 73 -31 2 -6 34 -12 72 -15 43 -3 75 -10
86 -20 10 -9 35 -19 56 -22 22 -3 41 -9 44 -13 3 -4 50 -17 105 -29 55 -12
114 -26 131 -31 17 -6 48 -10 70 -10 22 0 44 -4 50 -9 9 -9 73 -17 229 -27 44
-2 89 -9 100 -14 11 -6 74 -8 145 -5 150 5 146 5 240 1 43 -2 81 1 88 7 8 7
16 7 20 1 9 -12 91 -12 100 1 4 6 51 10 104 11 54 0 103 5 110 11 19 15 76 24
83 13 12 -19 36 -10 45 16 8 19 14 23 23 16 6 -5 26 -12 44 -15 24 -5 35 -2
42 10 7 13 26 17 81 19 39 1 77 7 83 13 6 6 28 11 48 11 21 0 41 5 44 10 3 6
19 10 34 10 16 0 45 7 64 15 20 8 50 15 68 15 23 0 32 5 36 21 4 16 11 19 29
15 12 -3 26 -2 29 4 3 5 16 10 28 10 12 0 40 7 62 14 31 11 41 20 43 40 4 31
13 33 30 6 16 -26 42 -26 49 0 3 11 11 20 19 20 7 0 18 9 24 20 8 15 21 20 54
20 44 0 110 22 121 40 3 5 17 10 31 10 14 0 43 9 65 20 31 16 39 25 34 40 -3
10 -1 21 5 25 6 3 10 -3 10 -14 0 -24 9 -26 43 -10 18 8 27 22 31 49 5 35 9
39 36 38 18 -1 30 -6 30 -15 0 -19 20 -16 44 6 24 22 96 61 112 61 6 0 19 9
29 20 10 11 24 20 32 20 7 0 13 5 13 10 0 6 9 10 20 10 14 0 18 5 13 17 -5 12
-2 15 10 10 20 -8 61 13 103 52 18 17 38 31 44 31 7 0 40 25 75 55 34 30 67
55 72 55 5 0 18 9 28 20 10 11 26 20 35 20 21 0 70 51 70 73 0 9 -4 17 -10 17
-5 0 -10 5 -10 10 0 19 32 10 37 -10 7 -25 22 -26 29 -3 9 30 21 48 30 48 13
0 84 72 84 85 0 5 11 9 23 8 27 -2 83 38 90 65 3 9 13 17 22 17 17 0 64 48 65
66 0 12 54 54 69 54 5 0 20 13 33 30 13 16 62 69 110 118 50 51 88 98 90 112
1 14 12 29 23 35 12 5 36 22 55 37 28 22 34 33 33 60 0 18 1 25 4 15 2 -9 8
-17 12 -17 4 0 38 33 74 74 44 49 67 83 67 99 0 15 9 31 25 41 40 26 75 69 75
93 0 15 10 28 30 38 34 17 37 29 15 52 -19 18 -4 43 26 43 11 0 19 5 19 10 0
6 11 15 24 21 14 7 23 17 20 23 -2 6 12 22 31 36 37 26 65 70 65 102 0 10 4
18 9 18 5 0 11 12 13 27 2 19 10 29 26 33 24 5 54 50 112 167 17 34 38 67 46
74 8 6 14 16 14 21 0 5 11 26 25 46 14 20 25 47 25 59 0 13 10 33 23 45 34 34
50 69 51 112 1 31 5 40 21 42 22 3 47 32 39 46 -3 5 -3 22 1 38 5 21 13 30 26
30 14 0 19 7 19 25 0 14 4 25 10 25 5 0 7 13 4 29 -5 23 -2 32 17 41 l22 12
-24 19 c-16 13 -19 19 -9 19 8 0 32 16 53 36 30 28 37 42 37 73 0 20 5 42 12
49 7 7 8 12 4 12 -5 0 -1 12 9 26 13 20 15 37 11 69 -6 39 -5 43 17 49 12 3
35 24 50 47 26 39 27 43 11 60 -16 18 -16 22 8 67 15 26 35 51 46 56 13 7 22
23 26 50 3 23 14 59 26 81 22 42 26 80 10 90 -18 11 -11 25 13 25 24 0 36 21
57 103 7 26 16 49 20 52 3 2 5 40 4 83 -2 76 -1 80 22 91 14 6 33 11 43 11 10
0 26 9 36 20 10 11 24 20 31 20 15 0 124 57 145 76 9 8 42 28 75 44 52 26 196
123 230 154 7 6 24 20 39 31 15 11 40 32 55 47 16 16 33 28 38 28 5 0 27 16
48 35 21 19 41 35 44 35 4 0 25 17 46 38 22 20 62 55 89 77 73 57 295 285 295
301 0 8 3 14 8 14 4 1 23 24 42 52 19 28 43 58 53 66 9 9 17 23 17 32 0 9 13
31 30 50 16 19 29 41 30 48 0 7 11 30 25 52 14 22 25 44 25 49 0 5 6 14 14 20
8 7 24 37 36 69 12 31 28 71 36 87 47 106 64 150 64 165 0 10 7 31 15 46 8 16
15 40 15 54 0 14 7 36 16 48 10 14 14 32 10 48 -4 13 -2 33 4 43 5 10 12 35
14 55 2 19 7 40 10 45 7 11 19 186 18 261 -1 30 -1 66 -1 80 3 98 -2 161 -16
199 -8 24 -15 71 -15 105 0 42 -5 69 -17 86 -9 13 -18 42 -19 64 -3 41 -56
187 -78 216 -7 8 -17 26 -23 40 -25 58 -37 80 -45 80 -4 0 -8 6 -8 13 0 7 -13
28 -30 47 -16 19 -29 40 -30 47 0 19 -44 79 -99 135 -28 28 -51 58 -51 66 0
16 -108 125 -133 135 -9 3 -17 11 -17 17 0 12 -37 49 -66 66 -15 10 -18 21
-16 60 1 27 6 58 11 69 22 55 45 136 52 190 13 90 15 98 27 122 7 12 12 42 12
67 0 25 5 48 10 51 5 3 10 24 10 46 0 22 9 77 20 122 27 113 41 190 51 272 5
39 13 93 18 120 6 28 17 84 25 125 8 41 15 96 16 122 0 26 7 96 16 155 19 126
24 587 7 718 -12 94 -61 333 -74 357 -5 9 -9 26 -9 37 0 11 -10 42 -21 68 -12
27 -27 62 -34 78 -7 17 -17 41 -23 55 -6 14 -13 37 -16 52 -3 14 -17 40 -31
56 -14 17 -25 37 -25 46 0 8 -13 31 -30 49 -16 19 -30 42 -30 51 0 9 -16 38
-36 64 -20 26 -51 72 -70 101 -18 30 -63 87 -99 125 -35 39 -90 99 -121 134
-32 34 -62 62 -67 62 -6 0 -24 15 -41 33 -17 17 -53 44 -79 59 -26 15 -47 32
-47 38 0 5 25 33 56 62 31 29 65 70 75 91 11 21 31 42 44 47 14 5 25 17 25 25
0 9 18 33 40 54 22 21 40 45 40 53 0 9 12 23 26 33 19 12 24 22 20 38 -4 17 3
27 30 45 19 12 38 30 41 40 4 9 24 37 45 61 21 24 38 54 38 67 0 15 14 34 40
55 22 18 40 37 40 42 0 5 9 20 20 34 11 14 20 34 20 44 0 11 18 36 40 58 22
21 40 46 40 54 0 9 17 42 38 74 75 113 116 178 135 213 11 19 25 42 33 51 8 8
14 19 14 23 0 7 16 34 116 188 24 37 44 74 44 82 0 8 5 18 10 21 6 3 10 16 10
27 0 12 6 29 14 37 8 10 12 30 8 54 -4 33 -10 40 -46 57 -22 10 -57 21 -76 23
-19 3 -55 10 -80 17 -41 9 -93 17 -231 35 -25 3 -77 12 -115 20 -38 8 -87 15
-109 16 -22 0 -51 4 -65 8 -14 4 -37 3 -52 -3 -20 -7 -36 -6 -67 8 -28 13 -50
16 -76 12 -21 -4 -42 -3 -49 3 -15 13 -191 41 -255 41 -28 0 -53 5 -57 11 -3
6 -22 9 -43 6 -20 -2 -48 2 -65 10 -15 8 -50 16 -76 17 -27 1 -56 9 -65 16 -9
8 -43 16 -76 18 -33 2 -62 8 -65 13 -7 12 -81 11 -104 -1 -15 -8 -21 -6 -29 7
-5 10 -31 24 -58 31 -26 8 -58 18 -71 23 -13 5 -39 9 -59 9 -36 0 -91 14 -125
31 -10 5 -29 9 -42 9 -14 0 -27 4 -30 9 -3 4 -28 11 -55 15 -28 4 -79 17 -113
30 -35 13 -86 27 -113 31 -28 4 -54 11 -60 15 -12 10 -104 35 -200 56 -38 9
-83 22 -100 29 -16 7 -55 19 -85 26 -30 7 -60 16 -66 21 -6 5 -18 6 -26 3 -8
-3 -21 1 -28 10 -7 8 -23 15 -37 15 -13 0 -41 9 -63 20 -22 11 -54 20 -72 20
-18 0 -44 9 -58 20 -14 11 -41 20 -62 20 -20 0 -40 5 -43 10 -3 6 -17 10 -31
10 -13 0 -24 3 -24 8 0 10 -100 48 -180 68 -36 9 -76 22 -90 29 -35 18 -251
93 -328 114 -34 10 -68 23 -74 29 -7 7 -20 12 -30 12 -10 0 -26 4 -36 9 -19
10 -50 22 -102 40 -19 7 -57 21 -85 32 -27 10 -59 19 -71 19 -12 0 -33 9 -47
20 -14 11 -37 20 -51 20 -14 0 -42 9 -61 20 -20 11 -60 26 -88 32 -29 6 -54
14 -57 18 -12 18 -182 80 -270 100 -19 4 -48 14 -65 23 -46 25 -161 67 -182
67 -11 0 -24 5 -30 11 -8 8 -17 7 -34 -1 -20 -11 -25 -10 -37 9 -8 11 -21 21
-28 21 -8 0 -22 4 -32 9 -59 30 -185 71 -218 71 -13 0 -39 9 -59 20 -20 11
-47 20 -61 20 -13 0 -36 7 -49 16 -13 9 -37 14 -52 13 -15 -2 -41 4 -58 13
-16 8 -55 21 -85 28 -30 6 -68 16 -85 20 -16 5 -66 16 -110 26 -44 9 -89 20
-100 25 -19 7 -34 10 -140 28 -27 5 -79 14 -115 21 -36 6 -83 12 -105 11 -22
0 -56 4 -75 9 -48 13 -177 22 -345 25 -77 1 -147 5 -156 9 -8 4 -17 5 -20 2z
m-2298 -3666 c17 -28 39 -55 50 -61 10 -5 19 -18 19 -28 0 -11 23 -39 50 -64
28 -25 50 -52 50 -60 0 -9 13 -23 28 -32 16 -10 32 -27 38 -38 5 -12 18 -26
30 -32 12 -6 46 -40 77 -75 30 -36 92 -96 137 -135 45 -38 113 -98 152 -132
38 -35 74 -63 79 -63 5 0 9 -7 9 -15 0 -9 11 -20 24 -25 14 -5 32 -21 42 -35
9 -14 24 -25 33 -25 9 0 29 -13 44 -30 16 -16 35 -30 43 -30 7 0 28 -14 46
-31 30 -28 110 -86 252 -181 26 -18 55 -41 64 -50 9 -10 31 -18 49 -18 23 0
33 -5 33 -15 0 -8 9 -15 20 -15 11 0 37 -15 57 -32 42 -37 77 -58 94 -58 6 0
24 -9 39 -20 45 -32 140 -80 159 -80 10 0 26 -9 36 -20 10 -11 30 -20 45 -20
15 0 39 -9 53 -20 14 -11 30 -20 36 -20 6 0 28 -11 49 -24 21 -13 52 -27 70
-31 41 -9 92 -34 92 -45 0 -5 13 -8 28 -8 35 1 90 -16 172 -55 40 -19 86 -32
120 -34 38 -3 60 -10 70 -23 8 -10 31 -20 50 -23 34 -5 83 -18 208 -53 31 -9
76 -17 100 -17 23 0 42 -3 42 -8 0 -5 15 -9 34 -9 22 0 36 -6 40 -16 5 -13 15
-15 41 -11 19 3 37 1 41 -4 3 -6 13 -8 21 -5 8 4 35 -1 59 -9 25 -8 67 -15 94
-15 26 0 50 -5 52 -11 3 -9 119 -20 208 -20 19 1 62 -6 95 -14 60 -15 138 -21
383 -29 88 -3 132 -1 132 6 0 6 7 7 18 2 9 -4 62 -9 117 -11 55 -2 107 -4 115
-5 30 -2 218 16 230 23 3 1 43 4 90 5 47 1 96 5 110 7 14 2 50 5 80 6 37 2 49
5 36 10 -36 14 -2 19 53 8 44 -8 56 -8 65 4 8 10 27 14 61 12 28 -1 59 2 70 7
11 5 41 11 67 15 27 3 49 12 52 21 5 12 10 13 27 4 16 -9 24 -8 37 3 21 18 66
27 84 16 7 -5 19 -2 28 5 8 7 35 16 60 20 50 7 175 43 202 57 10 5 26 9 37 9
10 0 24 7 31 16 7 8 23 14 34 13 12 -2 38 5 58 15 20 10 42 15 48 11 6 -4 19
0 28 8 9 8 34 18 56 21 21 4 46 11 55 16 9 4 27 12 41 17 14 6 45 20 70 33 25
12 59 24 77 27 39 6 45 -9 39 -102 -3 -48 0 -78 10 -97 8 -15 14 -55 14 -92 0
-36 4 -67 9 -70 4 -3 9 -29 10 -58 0 -28 5 -56 11 -62 5 -5 10 -31 10 -57 0
-32 7 -57 24 -82 31 -46 42 -93 25 -113 -11 -14 -8 -20 20 -43 27 -22 31 -31
26 -53 -4 -17 0 -39 14 -66 12 -23 21 -51 21 -63 0 -11 9 -32 20 -46 11 -14
20 -35 20 -47 0 -12 7 -31 15 -42 8 -10 15 -28 15 -40 0 -11 11 -44 25 -73 14
-28 23 -56 20 -61 -3 -5 3 -17 15 -27 11 -10 20 -29 20 -43 0 -14 7 -34 15
-44 8 -11 15 -27 15 -36 0 -9 11 -22 25 -28 18 -8 25 -19 25 -40 0 -17 9 -37
21 -48 12 -10 28 -34 36 -51 7 -18 18 -33 23 -33 6 0 10 -11 10 -24 0 -20 -4
-23 -22 -19 -22 5 -144 55 -180 74 -10 5 -26 9 -35 9 -10 0 -47 9 -81 20 -35
11 -79 20 -97 20 -18 0 -50 8 -71 17 -46 20 -126 34 -210 37 -34 2 -67 7 -75
12 -8 5 -34 10 -59 11 -180 10 -281 38 -295 82 -3 11 -20 29 -38 40 -18 11
-50 34 -72 50 -50 38 -104 64 -155 75 -14 2 -43 10 -65 16 -22 6 -60 16 -85
20 -25 5 -84 18 -133 29 -48 11 -99 20 -115 20 -15 0 -65 5 -112 10 -84 10
-348 13 -445 6 -27 -2 -72 -8 -100 -14 -27 -5 -76 -10 -108 -10 -32 -1 -97
-10 -145 -21 -48 -11 -109 -26 -137 -32 -27 -6 -75 -19 -105 -28 -50 -16 -72
-25 -135 -51 -11 -4 -45 -15 -77 -24 -31 -9 -62 -22 -68 -30 -7 -8 -18 -15
-26 -15 -7 0 -49 -18 -93 -40 -44 -22 -86 -40 -94 -40 -8 0 -25 -8 -38 -19
-13 -10 -43 -28 -65 -39 -104 -53 -142 -111 -123 -190 18 -70 56 -114 122
-136 l56 -19 61 23 c33 12 63 27 66 31 3 5 21 9 39 9 20 0 62 15 101 35 36 19
75 35 87 35 24 0 192 46 219 61 10 5 28 9 40 9 13 0 43 7 68 16 25 9 72 18
104 21 33 2 66 9 73 14 7 7 64 11 140 10 90 0 129 3 135 12 6 9 10 9 20 -1 6
-6 21 -12 31 -12 17 0 17 -2 -6 -20 -14 -11 -34 -20 -46 -20 -11 0 -26 -9 -34
-20 -13 -18 -18 -19 -41 -9 -20 9 -32 9 -49 1 -42 -21 -99 -42 -115 -42 -9 0
-43 -13 -77 -29 -64 -31 -122 -51 -146 -51 -9 0 -25 -11 -37 -25 -17 -19 -28
-24 -47 -19 -18 4 -30 0 -48 -20 -19 -20 -34 -26 -65 -26 -22 0 -44 -5 -47
-10 -7 -11 -83 -50 -99 -50 -5 0 -19 -9 -30 -19 -12 -10 -47 -33 -79 -50 -94
-50 -104 -60 -120 -104 -8 -23 -17 -49 -21 -57 -4 -10 1 -19 16 -25 13 -6 24
-19 26 -30 12 -66 85 -106 154 -83 87 30 165 61 179 74 8 8 25 14 36 14 11 0
32 11 47 25 15 14 38 25 52 25 14 0 49 11 77 24 29 13 68 27 87 31 19 4 42 14
51 22 9 7 20 13 25 12 13 -3 63 12 93 27 14 8 34 14 44 14 10 0 20 7 24 16 3
8 15 14 27 13 28 -3 72 9 118 32 21 11 56 19 78 19 26 0 51 8 71 22 26 19 33
21 50 9 17 -10 24 -10 37 2 17 15 119 37 183 41 20 1 48 9 63 19 14 10 32 15
38 11 22 -14 84 -11 153 7 39 10 95 18 125 17 63 -1 96 4 127 20 18 10 24 9
30 -3 13 -22 105 -23 137 -1 31 20 50 20 79 2 34 -22 137 -32 149 -15 7 11 11
11 15 2 2 -7 22 -13 42 -13 21 0 40 -3 44 -6 3 -4 30 -8 59 -10 29 -1 80 -6
113 -9 33 -4 73 -7 88 -6 16 0 38 -6 50 -13 12 -8 37 -14 55 -14 18 0 39 -5
45 -10 7 -5 37 -13 67 -16 30 -4 64 -11 75 -15 79 -33 166 -61 187 -61 14 0
49 -15 98 -42 8 -4 40 -21 71 -37 65 -34 74 -53 60 -127 -5 -28 -5 -95 0 -159
5 -60 9 -157 8 -215 -1 -94 2 -108 21 -133 17 -21 20 -34 14 -55 -17 -54 -19
-219 -3 -238 9 -11 8 -18 -5 -33 -13 -15 -14 -23 -5 -50 8 -23 8 -44 1 -74 -8
-29 -8 -45 0 -54 7 -9 7 -17 -2 -28 -10 -13 -9 -19 5 -35 18 -20 18 -21 -4
-42 -20 -18 -22 -26 -16 -62 11 -57 11 -68 -5 -174 -11 -74 -11 -95 -2 -101
10 -6 9 -14 -3 -37 -8 -16 -15 -37 -15 -46 0 -10 -9 -33 -20 -53 -11 -20 -20
-43 -20 -53 0 -9 -7 -26 -15 -36 -8 -11 -15 -35 -15 -54 0 -24 -7 -40 -25 -54
-14 -11 -25 -29 -25 -41 0 -12 -9 -28 -20 -35 -11 -7 -20 -21 -20 -32 0 -11
-4 -20 -10 -20 -5 0 -10 -5 -10 -11 0 -12 -40 -62 -94 -119 -19 -19 -39 -45
-45 -57 -6 -12 -33 -37 -59 -55 -26 -18 -55 -42 -65 -55 -10 -13 -23 -23 -29
-23 -21 0 -78 -51 -78 -69 0 -14 -6 -17 -25 -13 -22 4 -25 1 -25 -22 0 -25 -2
-26 -34 -21 -28 6 -36 3 -45 -14 -7 -12 -20 -21 -30 -21 -10 0 -26 -9 -36 -20
-10 -11 -30 -20 -45 -20 -15 0 -35 -9 -45 -20 -10 -11 -26 -20 -36 -20 -10 0
-27 -12 -38 -27 -18 -22 -25 -25 -45 -15 -27 12 -36 7 -36 -20 0 -14 -8 -18
-37 -18 -23 0 -45 -7 -59 -21 -18 -17 -25 -19 -41 -8 -17 10 -33 7 -94 -16
-41 -15 -82 -31 -91 -36 -10 -5 -42 -9 -72 -9 -30 0 -57 -4 -60 -9 -3 -4 -34
-11 -68 -15 -84 -9 -138 -26 -138 -43 0 -16 -81 -18 -96 -3 -8 8 -41 8 -110 0
-54 -6 -124 -10 -154 -10 -68 2 -147 7 -157 10 -9 3 -26 5 -143 18 -41 4 -85
13 -97 20 -12 6 -43 12 -70 12 -26 0 -61 7 -77 15 -15 8 -36 15 -45 15 -9 0
-29 9 -45 19 -16 11 -34 17 -41 15 -6 -3 -19 4 -30 15 -10 12 -33 23 -52 27
-33 6 -50 19 -154 117 -31 29 -59 47 -75 47 -13 0 -24 5 -24 10 0 11 -78 98
-157 176 -24 23 -43 46 -43 52 0 6 -22 55 -48 109 -50 100 -72 157 -72 185 0
9 -11 41 -25 72 -14 31 -25 76 -25 99 -1 23 -7 53 -15 67 -7 14 -11 36 -8 50
2 14 -1 39 -9 55 -15 35 -15 45 -15 355 -1 357 8 538 28 614 6 21 11 84 12
140 1 83 -2 108 -19 141 -15 30 -25 39 -39 36 -11 -2 -38 -3 -60 -2 -22 0 -56
-4 -76 -10 -31 -10 -43 -8 -84 10 -26 11 -56 21 -67 21 -11 0 -29 5 -41 12
-22 13 -112 17 -362 20 -147 1 -275 -14 -312 -38 -12 -8 -33 -14 -45 -14 -13
0 -38 -9 -56 -20 -21 -13 -41 -18 -57 -14 -20 5 -27 1 -36 -22 -6 -16 -16 -38
-20 -49 -10 -21 -30 -143 -31 -185 0 -14 1 -78 3 -142 2 -77 -1 -121 -9 -130
-7 -9 -10 -47 -9 -99 1 -62 -2 -92 -15 -116 -14 -28 -14 -34 -2 -44 13 -10 12
-15 -6 -34 -12 -13 -20 -35 -20 -55 0 -33 -9 -70 -36 -140 -7 -19 -16 -51 -19
-70 -4 -19 -14 -46 -22 -59 -8 -12 -12 -33 -9 -44 3 -13 -3 -32 -18 -52 -12
-16 -28 -52 -35 -79 -7 -27 -20 -61 -30 -75 -20 -28 -71 -136 -71 -150 0 -4
-9 -16 -20 -26 -11 -10 -20 -24 -20 -32 0 -7 -9 -22 -20 -33 -11 -11 -20 -27
-20 -36 0 -9 -16 -35 -35 -58 -19 -24 -35 -51 -35 -60 0 -10 -14 -29 -30 -43
-17 -14 -37 -41 -45 -59 -8 -19 -20 -34 -28 -34 -8 0 -39 -26 -69 -57 -31 -32
-78 -76 -106 -97 -29 -21 -54 -47 -57 -57 -4 -11 -23 -23 -47 -30 -23 -6 -58
-22 -77 -35 -20 -13 -43 -24 -52 -24 -9 0 -24 -9 -34 -20 -11 -12 -31 -20 -51
-20 -18 0 -36 -4 -39 -10 -3 -5 -17 -10 -31 -10 -13 0 -32 -9 -41 -20 -10 -11
-24 -20 -32 -20 -8 0 -25 -9 -37 -21 -17 -16 -27 -18 -41 -11 -27 14 -88 21
-102 13 -7 -4 -11 -14 -9 -22 2 -8 -3 -12 -12 -10 -39 11 -92 12 -104 2 -7 -6
-24 -11 -37 -11 -79 1 -233 11 -289 20 -35 6 -70 8 -77 5 -7 -2 -23 -1 -36 4
-68 26 -97 32 -114 22 -13 -7 -24 -4 -40 9 -13 10 -49 20 -88 25 -45 4 -78 15
-102 31 -22 15 -50 24 -73 24 -21 0 -43 7 -50 15 -7 8 -23 15 -35 15 -12 0
-28 6 -34 14 -7 8 -24 17 -39 21 -15 3 -36 15 -47 24 -11 10 -32 21 -46 25
-27 6 -144 80 -154 97 -4 5 -19 9 -34 9 -18 0 -38 11 -57 31 -16 17 -42 42
-59 57 -16 15 -58 54 -91 87 -34 33 -72 67 -86 77 -37 25 -172 231 -250 383
-41 78 -95 216 -108 275 -4 19 -13 48 -19 64 -19 47 -30 109 -48 254 -17 144
-18 273 -7 722 10 415 12 393 -37 465 -33 48 -77 84 -148 121 -44 23 -49 29
-41 49 5 13 6 33 3 45 -3 12 -1 31 5 43 6 12 13 33 15 47 3 14 15 70 27 125
12 55 26 130 31 166 5 37 16 80 24 95 8 16 15 39 15 51 0 12 5 25 10 28 6 4
10 23 9 43 -2 36 2 50 42 156 11 27 19 57 19 67 0 11 4 27 9 37 5 9 21 53 35
97 15 44 31 94 37 110 6 17 12 39 13 50 2 11 6 27 9 35 3 8 8 27 11 41 3 14
14 36 25 48 11 13 25 48 31 79 7 32 25 83 41 115 16 32 29 63 29 70 0 7 16 42
35 80 19 37 32 67 29 67 -3 0 4 15 15 34 12 18 21 40 21 49 0 8 18 50 40 93
22 43 40 83 40 89 0 5 9 21 20 35 11 14 20 36 20 48 0 13 9 35 20 49 11 14 20
31 20 38 0 6 9 20 20 30 11 10 20 25 20 34 0 9 16 43 36 76 19 33 47 87 63
120 16 33 40 70 55 82 14 13 26 30 26 38 0 20 38 90 67 122 11 13 29 41 39 61
22 47 100 166 119 182 8 7 15 18 15 25 0 7 7 18 15 25 9 7 23 29 32 49 22 48
83 137 125 182 49 54 76 87 80 100 7 21 163 189 175 189 7 0 27 -23 44 -50z
m8173 -3576 c8 -10 30 -16 61 -18 28 -2 57 -5 65 -8 8 -3 40 -11 70 -18 30 -6
74 -20 98 -31 24 -11 68 -27 99 -37 31 -9 58 -24 60 -32 5 -17 65 -50 90 -50
9 0 26 -10 38 -22 13 -13 35 -32 49 -43 14 -11 26 -25 26 -31 0 -16 42 -51 65
-56 12 -2 21 -13 23 -25 2 -13 13 -31 25 -40 12 -10 30 -30 40 -45 9 -16 23
-27 30 -25 7 1 13 -11 15 -30 2 -19 13 -40 25 -50 13 -10 34 -36 47 -58 13
-22 35 -48 47 -58 16 -13 23 -29 23 -55 1 -39 15 -64 41 -74 10 -4 18 -23 22
-55 3 -26 15 -69 26 -94 12 -26 26 -80 31 -122 6 -41 15 -89 20 -107 6 -22 6
-48 -1 -76 -8 -31 -8 -52 0 -75 16 -46 14 -87 -9 -150 -10 -31 -17 -65 -14
-76 3 -12 1 -31 -6 -43 -9 -18 -8 -25 6 -41 15 -17 16 -21 2 -36 -9 -10 -19
-35 -22 -56 -4 -21 -13 -40 -21 -43 -8 -3 -18 -34 -25 -77 -6 -40 -15 -80 -20
-89 -6 -10 -10 -26 -10 -36 0 -10 -14 -29 -31 -41 -25 -18 -29 -28 -24 -48 3
-15 2 -22 -4 -19 -14 9 -26 -14 -26 -49 0 -20 -7 -33 -21 -40 -35 -17 -54 -36
-54 -54 0 -9 -14 -29 -29 -44 -16 -16 -35 -42 -41 -58 -7 -16 -16 -29 -21 -29
-5 0 -14 -11 -19 -25 -5 -14 -23 -34 -40 -43 -16 -9 -30 -23 -30 -29 0 -14
-70 -82 -83 -83 -12 0 -46 -40 -57 -68 -6 -13 -25 -30 -42 -38 -57 -26 -79
-41 -116 -77 -21 -19 -49 -37 -64 -41 -16 -4 -34 -18 -43 -35 -9 -19 -26 -32
-45 -36 -16 -4 -30 -11 -30 -16 0 -5 -8 -13 -17 -16 -10 -4 -25 -16 -34 -26
-8 -11 -28 -21 -44 -23 -15 -2 -37 -11 -49 -22 -11 -10 -29 -22 -38 -25 -9 -3
-18 -18 -20 -34 -3 -26 -7 -28 -60 -34 -38 -4 -69 -15 -90 -31 -18 -13 -49
-30 -68 -38 -19 -8 -57 -27 -83 -42 -26 -15 -51 -28 -56 -28 -4 0 -13 -11 -19
-24 -7 -17 -22 -25 -51 -30 -23 -3 -41 -11 -41 -17 0 -8 -13 -9 -40 -5 -37 6
-40 5 -46 -21 -3 -16 -17 -62 -30 -103 -14 -41 -27 -97 -29 -124 -3 -27 -12
-57 -20 -66 -8 -9 -15 -24 -15 -32 0 -9 -7 -29 -15 -44 -8 -16 -15 -38 -15
-48 0 -22 -17 -81 -32 -110 -18 -34 -59 -233 -52 -251 2 -5 -10 -19 -26 -30
-30 -19 -60 -89 -60 -137 0 -10 -7 -21 -15 -24 -10 -4 -15 -21 -15 -53 -1 -36
-7 -53 -30 -81 -17 -19 -30 -44 -30 -57 0 -12 -9 -27 -20 -33 -11 -6 -20 -21
-20 -34 0 -13 -9 -33 -20 -46 -13 -15 -20 -37 -20 -66 0 -33 -5 -46 -22 -58
-18 -13 -20 -19 -10 -40 9 -21 7 -27 -29 -55 -23 -19 -39 -41 -39 -53 0 -11
-20 -47 -45 -80 -25 -33 -45 -66 -45 -73 0 -8 -14 -35 -31 -60 -17 -26 -38
-67 -45 -92 -8 -25 -25 -54 -40 -65 -20 -16 -25 -27 -21 -47 4 -21 1 -29 -16
-36 -12 -6 -23 -20 -25 -31 -2 -12 -14 -26 -28 -32 -15 -8 -24 -20 -24 -35 0
-13 -9 -32 -21 -43 -12 -10 -30 -38 -41 -62 -11 -23 -29 -47 -39 -53 -11 -5
-19 -15 -19 -22 0 -7 -9 -20 -20 -30 -11 -9 -20 -23 -20 -30 0 -8 -11 -24 -25
-37 -13 -13 -38 -51 -54 -85 -22 -47 -35 -64 -55 -69 -19 -5 -28 -15 -32 -35
-4 -18 -14 -31 -26 -35 -16 -4 -19 -10 -14 -29 7 -30 -32 -77 -64 -77 -13 0
-30 -16 -50 -49 -17 -27 -42 -56 -55 -65 -26 -17 -34 -51 -12 -59 7 -2 8 -8 3
-13 -5 -5 -11 -4 -13 4 -8 22 -29 13 -64 -29 -19 -23 -55 -62 -81 -87 -27 -25
-48 -51 -48 -58 0 -8 -5 -14 -11 -14 -5 0 -48 -38 -93 -85 -46 -47 -87 -85
-91 -85 -4 0 -33 -24 -64 -52 -31 -29 -78 -69 -104 -88 -29 -21 -50 -45 -53
-62 -5 -20 -14 -28 -41 -33 -19 -3 -42 -15 -51 -26 -9 -11 -47 -38 -84 -60
-38 -22 -68 -44 -68 -50 0 -5 -15 -16 -34 -24 -19 -8 -37 -19 -41 -25 -3 -6
-23 -19 -43 -30 -42 -23 -78 -47 -113 -73 -45 -34 -94 -63 -129 -76 -19 -8
-46 -25 -61 -38 -14 -12 -32 -23 -40 -23 -25 -1 -142 -57 -151 -74 -5 -9 -18
-16 -28 -16 -10 0 -22 -5 -25 -10 -3 -6 -14 -10 -23 -10 -9 0 -28 -9 -42 -20
-14 -11 -33 -20 -43 -20 -20 0 -74 -33 -94 -57 -9 -12 -15 -12 -32 -1 -17 10
-25 10 -48 -3 -16 -9 -45 -22 -65 -28 -21 -7 -38 -19 -38 -27 0 -10 -7 -13
-25 -8 -16 4 -34 0 -50 -10 -13 -9 -38 -16 -54 -16 -16 0 -42 -6 -58 -14 -89
-43 -99 -46 -131 -40 -28 6 -34 4 -39 -15 -6 -24 -14 -26 -30 -10 -12 12 -124
-2 -203 -26 -60 -18 -126 -26 -215 -27 -55 0 -75 -4 -79 -14 -5 -12 -10 -13
-27 -3 -14 7 -29 8 -43 2 -11 -4 -100 -6 -196 -3 -139 4 -180 3 -199 -8 -17
-10 -29 -11 -45 -4 -41 20 -144 35 -306 46 -74 5 -200 26 -276 47 -39 11 -84
19 -101 17 -17 -1 -38 4 -47 11 -8 7 -20 10 -26 6 -6 -4 -31 3 -55 14 -24 11
-63 23 -87 27 -41 5 -70 15 -110 35 -10 5 -25 9 -34 9 -9 0 -27 9 -41 20 -14
11 -31 20 -37 20 -7 0 -31 9 -54 20 -22 11 -46 20 -52 20 -6 0 -18 7 -26 15
-9 8 -28 15 -43 15 -16 0 -34 7 -41 15 -7 8 -23 15 -35 15 -12 0 -28 7 -35 14
-6 8 -27 20 -46 26 -33 11 -130 66 -159 90 -8 7 -21 10 -29 7 -8 -3 -24 5 -36
18 -12 13 -33 26 -47 29 -13 4 -47 22 -74 42 -29 20 -57 33 -67 30 -23 -7 -39
4 -51 37 -6 16 -18 27 -29 27 -10 0 -35 18 -56 40 -20 22 -45 40 -56 40 -10 0
-22 5 -26 11 -3 6 -30 26 -60 45 -30 19 -86 64 -126 99 -39 36 -80 65 -90 65
-10 0 -22 8 -25 18 -4 9 -22 31 -41 47 -20 17 -53 47 -76 69 -22 21 -56 49
-76 61 -20 13 -51 45 -68 72 -18 27 -43 56 -57 63 -13 7 -27 21 -31 32 -3 10
-9 18 -14 18 -4 0 -45 43 -91 95 -46 52 -91 98 -101 101 -10 3 -18 11 -18 18
0 8 -7 20 -17 27 -25 21 -123 147 -123 158 0 5 -11 18 -24 28 -13 10 -31 33
-40 51 -9 18 -28 37 -40 42 -15 5 -29 23 -36 43 -6 20 -17 38 -24 40 -7 3 -23
26 -35 51 -12 25 -31 48 -42 51 -11 4 -22 19 -25 35 -4 15 -24 46 -45 67 -21
22 -45 59 -54 82 -8 23 -24 54 -35 68 -11 14 -20 32 -20 39 0 7 -11 21 -25 32
-14 11 -25 28 -25 38 0 11 -16 39 -36 64 -19 24 -38 58 -41 75 -4 17 -27 49
-55 77 -32 31 -48 55 -48 72 0 14 -4 28 -10 31 -5 3 -10 14 -10 23 0 9 -27 70
-60 135 -33 64 -60 124 -60 131 0 7 -6 19 -14 25 -7 6 -21 33 -30 59 -10 26
-31 74 -47 108 -16 33 -29 65 -29 71 0 5 -9 18 -19 27 -11 10 -25 41 -31 69
-6 29 -23 79 -39 112 -16 33 -34 80 -41 105 -7 25 -24 70 -38 100 -14 30 -27
70 -28 88 -2 19 -13 53 -25 75 -12 23 -26 65 -29 92 -4 28 -19 80 -32 115 -26
69 -48 146 -55 195 -2 17 -8 39 -12 50 -19 47 -31 93 -31 117 0 15 -8 34 -17
44 -11 11 -18 37 -20 78 -2 33 -8 65 -13 70 -6 6 -10 30 -10 53 0 24 -7 57
-15 73 -8 16 -12 36 -9 44 4 9 1 23 -6 31 -6 8 -9 23 -5 34 3 11 -1 33 -9 48
-8 16 -17 62 -20 103 -4 41 -11 98 -17 125 -11 56 -28 154 -33 202 -2 17 -7
36 -10 42 -4 6 -9 57 -12 113 -2 57 -9 137 -14 178 -13 105 -22 279 -24 451
-1 131 1 149 18 168 36 39 56 19 56 -57 0 -19 13 -58 29 -87 18 -33 26 -57 21
-66 -11 -17 -1 -69 16 -90 8 -8 14 -27 14 -40 0 -14 4 -29 10 -35 10 -10 50
-128 50 -149 0 -6 9 -20 20 -30 11 -10 23 -37 27 -59 4 -25 17 -52 35 -69 15
-16 28 -34 28 -42 0 -7 7 -18 15 -25 8 -7 15 -23 15 -36 0 -34 53 -109 132
-186 37 -38 68 -77 68 -87 0 -13 8 -21 22 -23 14 -2 24 -12 28 -27 3 -13 13
-27 22 -30 8 -3 37 -29 62 -58 35 -39 55 -53 79 -55 21 -2 35 -11 43 -26 14
-28 66 -62 94 -62 11 0 24 -12 32 -27 10 -21 23 -29 52 -34 26 -4 47 -16 61
-33 11 -14 28 -26 37 -26 8 0 21 -7 28 -15 7 -8 28 -15 48 -15 28 0 41 -7 66
-36 17 -20 43 -38 56 -40 47 -7 85 -17 90 -23 17 -22 87 -52 116 -49 17 1 38
-2 45 -8 8 -6 30 -17 49 -24 19 -7 40 -17 46 -21 14 -11 153 -31 165 -23 5 3
16 -2 25 -10 10 -11 34 -16 69 -16 30 0 56 -4 59 -9 9 -14 127 -22 142 -10 8
6 19 7 26 2 35 -22 378 -7 378 17 0 11 41 20 54 13 21 -13 101 -11 123 3 12 8
34 14 48 14 14 0 28 7 31 15 4 10 20 15 50 15 60 0 135 27 161 59 17 20 25 23
31 13 11 -17 137 39 152 68 7 12 21 20 38 20 16 0 47 16 77 40 28 22 59 44 71
49 11 5 63 52 116 105 53 53 100 96 105 96 18 0 183 207 183 229 0 7 14 26 30
41 18 16 30 38 30 52 0 14 9 33 20 43 11 10 20 24 20 30 0 7 7 18 15 25 22 18
58 99 62 140 2 22 13 43 28 57 26 23 62 100 51 110 -3 4 2 16 13 27 11 12 29
50 41 86 11 36 25 74 30 85 12 28 27 83 35 130 4 22 11 46 17 53 6 7 8 30 5
51 -2 22 0 44 5 49 15 15 41 139 43 207 1 33 4 67 7 75 16 38 17 79 3 90 -21
17 -19 44 5 65 11 10 20 29 20 41 0 13 -9 29 -20 36 -26 16 -25 19 8 56 29 32
62 51 128 71 46 15 229 7 240 -10 3 -5 16 -9 29 -9 13 0 27 -4 30 -10 3 -5 17
-10 30 -10 27 0 56 -12 100 -39 17 -11 45 -20 64 -20 31 -1 33 -3 27 -28 -24
-97 -28 -134 -16 -148 9 -10 9 -19 2 -27 -5 -7 -9 -58 -7 -116 1 -56 -1 -105
-5 -107 -4 -3 -8 -36 -8 -74 -1 -39 -5 -79 -11 -89 -7 -13 -7 -22 1 -30 6 -6
12 -43 14 -82 1 -39 8 -77 14 -86 10 -11 10 -20 1 -40 -9 -20 -9 -30 0 -40 6
-8 8 -21 5 -30 -4 -9 -1 -23 5 -30 7 -8 9 -27 5 -46 -4 -21 -1 -39 9 -55 9
-13 15 -32 13 -41 -1 -9 4 -27 10 -40 7 -12 10 -26 7 -31 -8 -14 16 -114 33
-133 9 -11 12 -27 8 -43 -5 -20 1 -38 24 -73 16 -25 30 -56 30 -68 0 -13 5
-26 10 -29 6 -3 10 -15 10 -25 0 -11 9 -24 21 -30 15 -9 19 -18 15 -35 -5 -18
-1 -25 14 -30 11 -3 20 -10 20 -14 0 -5 17 -30 38 -57 21 -27 43 -61 50 -77 6
-15 22 -31 35 -36 13 -5 31 -21 40 -35 10 -14 24 -26 32 -26 7 0 16 -8 19 -18
3 -9 22 -31 41 -47 42 -35 75 -67 94 -90 7 -9 19 -14 27 -11 8 3 23 -7 36 -24
12 -17 29 -30 39 -30 9 0 22 -6 28 -14 7 -8 27 -22 46 -31 19 -9 35 -20 35
-25 0 -6 15 -10 33 -10 23 0 41 -8 57 -26 17 -17 31 -23 46 -20 13 4 30 -2 44
-14 12 -11 32 -22 44 -25 11 -4 30 -10 41 -15 74 -31 103 -38 113 -28 8 8 18
6 37 -6 14 -10 32 -15 38 -13 7 2 24 -2 40 -10 43 -22 128 -35 143 -22 10 8
20 6 41 -9 28 -20 74 -22 175 -7 20 3 39 1 42 -4 8 -12 257 -8 281 6 11 5 26
8 33 6 7 -3 19 1 27 7 11 9 22 9 47 1 28 -10 34 -8 56 11 23 23 24 23 39 3 11
-14 17 -16 20 -7 3 8 26 12 64 12 54 0 77 8 144 48 5 3 27 5 48 3 47 -3 137
19 137 34 0 7 12 10 30 7 21 -3 32 1 36 11 4 12 14 15 34 11 16 -4 37 0 51 9
13 8 45 18 70 21 27 4 54 15 64 26 10 11 25 20 33 20 7 0 26 8 40 19 15 10 40
19 57 19 19 0 34 7 43 21 8 12 25 21 38 21 13 0 32 9 41 20 10 11 23 20 31 20
12 0 61 24 107 53 105 65 177 115 210 147 22 20 55 46 73 56 17 10 32 24 32
32 0 14 53 72 65 72 10 0 30 23 38 43 3 9 13 17 20 17 19 0 128 146 139 187 5
19 18 37 28 41 24 9 70 97 70 134 0 17 8 31 20 38 14 7 20 21 20 44 0 19 7 39
15 46 8 7 15 26 15 43 0 16 10 45 22 65 17 28 19 38 10 53 -18 28 -15 44 14
79 24 28 25 34 15 58 -11 22 -10 28 5 39 12 9 15 20 11 43 -4 16 -2 42 4 57 7
19 6 35 -2 55 -9 22 -8 35 4 66 8 21 13 49 10 63 -2 14 3 54 13 90 29 104 27
376 -4 554 -13 76 -25 142 -28 146 -10 16 10 38 39 44 104 20 165 40 191 62
16 13 35 22 42 19 8 -3 18 3 24 14 6 11 26 22 46 26 24 4 38 14 44 29 5 12 23
28 42 35 39 15 188 167 188 192 0 21 45 53 60 43 6 -4 28 1 48 11 25 13 57 18
97 17 131 -3 140 -3 150 12 12 19 15 19 29 -1z m-2884 -7394 c0 -5 -5 -10 -11
-10 -5 0 -7 5 -4 10 3 6 8 10 11 10 2 0 4 -4 4 -10z"/>
<path d="M9533 13257 c-16 -4 -57 -6 -92 -3 -36 3 -70 1 -76 -4 -6 -5 -47 -11
-91 -14 -44 -3 -93 -10 -108 -16 -15 -5 -42 -10 -59 -10 -18 0 -66 -9 -107
-20 -41 -10 -86 -22 -100 -25 -14 -4 -34 -10 -45 -14 -43 -17 -92 -31 -109
-31 -36 0 -134 -59 -189 -114 -31 -32 -57 -61 -57 -65 0 -5 9 -15 21 -22 27
-18 45 -128 23 -145 -8 -6 -47 -14 -88 -17 -41 -4 -94 -14 -118 -23 -24 -9
-56 -17 -73 -18 -45 -2 -157 -39 -162 -53 -3 -8 -23 -13 -48 -13 -49 0 -153
-45 -194 -83 -14 -14 -41 -34 -60 -45 -36 -22 -71 -67 -71 -93 0 -9 11 -29 25
-45 13 -16 37 -44 52 -62 36 -41 103 -51 145 -21 14 11 33 19 41 19 13 0 43
11 112 39 63 26 79 31 104 31 16 0 46 7 67 16 22 10 50 18 64 20 14 1 45 8 70
14 25 7 59 12 77 11 18 0 35 3 37 8 3 5 25 6 49 4 24 -3 53 0 64 5 14 8 23 8
31 0 8 -8 15 -8 26 1 8 7 19 10 24 7 5 -3 18 1 28 9 14 10 42 13 114 9 52 -3
136 -1 185 4 72 7 94 6 112 -6 16 -10 38 -12 70 -8 45 5 141 9 190 7 13 -1 49
-8 80 -16 31 -8 81 -15 110 -15 28 0 55 -4 58 -10 3 -5 28 -10 55 -10 27 0 61
-5 75 -10 18 -7 33 -7 47 1 17 9 24 8 34 -6 7 -9 17 -14 23 -11 6 4 20 2 32
-5 12 -6 36 -13 53 -15 55 -5 96 -16 96 -24 0 -5 26 -10 58 -13 84 -8 126 -18
135 -33 4 -8 19 -14 32 -14 13 0 27 -5 30 -10 4 -6 15 -8 24 -5 10 3 24 -1 31
-10 9 -11 22 -14 37 -10 13 3 33 -1 46 -9 12 -8 43 -20 70 -27 26 -6 50 -15
53 -20 3 -5 14 -9 24 -9 17 0 66 -18 112 -41 10 -5 23 -9 29 -9 7 0 47 -18 90
-40 43 -22 89 -40 103 -40 13 0 29 -7 36 -15 17 -21 36 -19 70 6 27 20 32 21
75 9 44 -12 47 -12 73 14 15 14 36 32 46 40 19 13 19 14 -2 41 -12 15 -22 32
-22 37 0 4 -11 26 -24 47 -27 43 -86 89 -156 122 -24 12 -50 28 -58 35 -7 8
-21 14 -31 14 -9 0 -32 11 -51 25 -19 14 -43 25 -54 25 -10 0 -51 15 -90 34
-93 43 -112 49 -132 38 -17 -10 -121 31 -174 68 -30 21 -80 32 -138 31 -24 0
-55 7 -68 16 -14 9 -27 13 -31 9 -4 -3 -18 2 -32 11 -14 9 -48 21 -76 25 -27
4 -72 12 -100 18 -111 24 -153 31 -210 35 -89 6 -168 19 -189 31 -18 11 -18
12 -1 38 21 32 32 33 61 1 29 -31 69 -41 99 -25 20 11 27 11 40 0 9 -7 27 -10
44 -7 19 4 33 1 41 -8 7 -8 28 -15 46 -15 27 0 34 4 34 20 0 11 5 20 10 20 6
0 10 -6 10 -14 0 -19 25 -27 39 -13 8 8 17 5 34 -11 20 -19 37 -22 132 -25 61
-2 121 -9 135 -14 42 -17 118 -33 133 -27 8 3 20 -2 27 -11 8 -9 29 -15 57
-15 24 0 60 -7 80 -15 19 -8 49 -15 65 -15 16 0 42 -7 58 -15 15 -8 52 -15 82
-15 29 0 73 -1 98 -2 25 -1 59 5 75 13 26 13 30 19 27 51 -1 20 2 39 8 43 5 3
10 19 10 35 0 16 4 32 10 35 10 6 8 69 -4 97 -6 13 -15 16 -32 12 -17 -4 -26
-1 -30 10 -4 9 -27 28 -53 42 -25 13 -64 35 -86 47 -22 12 -67 31 -100 41 -33
11 -67 26 -76 33 -8 7 -26 13 -38 13 -24 0 -96 34 -106 50 -4 6 -15 8 -25 5
-10 -3 -39 6 -66 20 -26 14 -54 23 -61 21 -7 -3 -43 1 -80 9 -37 8 -95 15
-128 15 -34 0 -65 4 -71 10 -5 5 -72 11 -149 14 -77 2 -159 7 -182 11 -27 5
-54 3 -73 -5 -20 -8 -34 -9 -43 -2 -16 13 -100 19 -134 9z m42 -448 c5 -5 -12
-9 -43 -9 -52 0 -72 15 -29 23 26 5 58 -2 72 -14z m-185 1 c0 -5 -4 -10 -10
-10 -5 0 -10 5 -10 10 0 6 5 10 10 10 6 0 10 -4 10 -10z"/>
<path d="M13684 12282 c-73 -33 -113 -59 -135 -86 -9 -12 -41 -47 -71 -78 -30
-31 -61 -72 -68 -90 -8 -18 -22 -44 -32 -57 -10 -13 -18 -32 -18 -42 0 -9 -12
-31 -26 -48 -14 -17 -37 -62 -51 -99 -38 -105 -47 -125 -65 -152 -9 -14 -19
-45 -23 -70 -7 -52 -32 -146 -45 -175 -5 -11 -11 -36 -14 -55 -3 -19 -10 -60
-15 -90 -49 -257 -60 -552 -27 -700 10 -47 24 -105 32 -129 8 -25 14 -54 14
-65 0 -31 74 -178 110 -220 74 -83 165 -122 262 -112 133 13 203 72 342 282
98 148 235 458 266 599 5 22 19 81 30 130 43 189 69 407 72 605 2 122 -1 158
-20 225 -44 166 -134 335 -205 389 -91 69 -211 84 -313 38z"/>
<path d="M10000 12163 c-116 -40 -152 -65 -241 -169 -9 -10 -33 -34 -52 -52
-19 -18 -38 -44 -41 -57 -3 -13 -26 -52 -51 -87 -50 -70 -115 -198 -115 -227
0 -10 -6 -24 -14 -30 -15 -13 -46 -99 -46 -128 0 -10 -11 -49 -24 -88 -63
-183 -77 -408 -46 -725 5 -52 11 -104 13 -115 2 -11 7 -42 11 -70 9 -56 68
-204 100 -250 35 -52 128 -145 144 -145 9 0 25 -8 36 -18 56 -50 238 -64 294
-23 17 12 34 21 39 21 13 0 117 118 158 180 41 60 77 135 105 214 10 28 27 74
38 101 11 28 32 91 47 140 16 50 32 100 36 113 5 13 9 34 9 47 0 13 5 27 10
30 6 3 10 24 10 45 0 21 5 42 10 45 6 3 10 19 10 35 0 16 4 40 10 54 5 14 12
47 15 73 3 26 12 89 20 138 19 114 22 422 6 530 -15 98 -41 178 -70 213 -11
14 -21 31 -21 38 0 22 -107 122 -159 148 -68 35 -173 43 -241 19z"/>
<path d="M11712 10581 c-22 -16 -43 -34 -46 -40 -3 -5 -20 -12 -36 -16 -16 -4
-39 -19 -50 -35 -11 -16 -30 -32 -42 -36 -12 -3 -49 -33 -82 -66 -34 -33 -71
-69 -82 -80 -12 -11 -32 -42 -44 -68 -15 -32 -30 -50 -43 -52 -13 -2 -29 -21
-44 -50 -13 -27 -31 -48 -39 -48 -8 0 -18 -10 -23 -22 -31 -76 -36 -88 -42
-88 -11 0 -47 -95 -59 -153 -7 -33 -22 -70 -37 -87 -15 -18 -23 -37 -19 -46 6
-15 -3 -52 -25 -111 -5 -13 -5 -33 0 -46 5 -13 5 -30 0 -39 -5 -8 -5 -35 -1
-59 5 -25 4 -55 -2 -71 -7 -20 -5 -36 9 -67 13 -29 16 -53 12 -85 -4 -26 -2
-48 3 -51 6 -3 10 -17 10 -30 0 -13 11 -37 25 -53 13 -16 29 -48 34 -71 5 -24
18 -53 28 -64 11 -12 24 -34 30 -49 7 -14 24 -32 40 -40 15 -7 29 -22 31 -33
6 -30 22 -45 47 -45 22 0 55 -28 55 -46 0 -19 66 -74 88 -74 14 0 27 -11 37
-30 16 -31 35 -40 35 -17 1 7 6 5 14 -5 7 -10 20 -18 29 -18 9 0 19 -11 23
-25 7 -28 29 -33 38 -9 3 8 10 13 15 9 5 -3 12 -1 16 5 10 16 23 12 30 -10 8
-27 38 -25 50 2 12 26 35 36 35 14 0 -9 -4 -16 -10 -16 -5 0 -10 -4 -10 -10 0
-21 31 -9 40 15 8 20 16 25 44 25 50 0 69 9 55 26 -6 8 -18 14 -25 14 -8 0
-14 8 -14 19 0 15 10 20 45 26 40 5 45 9 40 26 -4 13 -2 19 9 19 24 0 19 17
-6 25 -14 4 -18 8 -10 12 14 6 16 43 2 43 -5 0 -20 16 -32 35 -17 25 -30 35
-50 35 -41 0 -58 10 -58 35 0 23 -55 65 -86 65 -26 0 -72 33 -168 122 -28 25
-62 48 -76 50 -20 2 -26 10 -28 33 -1 17 -13 55 -26 85 -40 92 -62 259 -45
340 4 19 13 62 20 95 7 33 12 64 10 69 -1 4 5 19 14 32 8 13 15 34 15 47 0 14
7 30 15 37 8 7 15 18 15 26 0 7 18 42 40 76 22 35 40 68 40 73 0 6 17 26 36
45 20 19 44 52 55 72 20 40 64 88 79 88 6 0 10 4 10 9 0 5 13 23 29 40 16 17
32 38 35 47 3 9 15 18 26 21 11 3 20 11 20 19 0 7 16 28 35 45 54 49 70 129
26 129 -9 0 -24 9 -34 20 -23 27 -47 25 -95 -9z"/>
<path d="M12750 7388 c-60 -27 -179 -89 -280 -145 -19 -10 -64 -30 -100 -42
-36 -13 -92 -36 -125 -51 -33 -15 -80 -33 -105 -40 -25 -7 -55 -16 -67 -21
-13 -5 -30 -6 -39 -2 -10 4 -22 0 -28 -9 -6 -9 -29 -18 -51 -21 -103 -16 -121
-19 -135 -25 -8 -3 -49 -6 -90 -7 -41 -1 -84 -6 -94 -12 -14 -8 -25 -8 -38 1
-16 9 -22 8 -32 -6 -16 -22 -46 -24 -46 -3 0 12 -14 15 -62 15 -39 1 -70 6
-82 15 -11 8 -29 12 -43 9 -13 -4 -30 0 -39 7 -14 11 -18 11 -29 -4 -7 -10
-19 -15 -28 -11 -27 10 -77 -18 -77 -43 0 -12 -4 -25 -10 -28 -5 -3 -10 -30
-10 -58 0 -44 5 -57 30 -84 17 -18 43 -36 58 -39 15 -4 32 -10 37 -14 18 -14
237 -49 310 -50 197 -4 328 0 340 10 10 8 19 8 34 1 14 -8 22 -8 26 -1 4 6 15
8 25 5 10 -3 37 1 61 9 24 8 58 15 74 14 17 0 44 6 60 14 17 8 52 18 79 22 27
3 63 15 81 26 18 11 47 20 64 20 18 0 41 9 53 20 12 11 29 20 37 20 8 0 31 11
50 24 20 14 52 27 71 30 19 3 41 14 50 24 8 11 31 22 50 26 35 6 110 65 110
86 0 6 8 10 18 9 41 -5 112 54 112 94 0 7 5 18 11 24 20 20 -3 132 -34 176
-20 25 -25 27 -96 26 -42 0 -87 -5 -101 -11z"/>
<path d="M5460 10690 c0 -11 5 -20 10 -20 6 0 10 9 10 20 0 11 -4 20 -10 20
-5 0 -10 -9 -10 -20z"/>
</g>
</svg>
